<?xml version="1.0" encoding="iso-8859-1"?>
<!-- Generator: Adobe Illustrator 19.0.0, SVG Export Plug-In . SVG Version: 6.00 Build 0)  -->
<svg version="1.1" id="Layer_1" xmlns="http://www.w3.org/2000/svg" xmlns:xlink="http://www.w3.org/1999/xlink" x="0px" y="0px"
	 viewBox="0 0 512 512" style="enable-background:new 0 0 512 512;" xml:space="preserve">
<path style="fill:#919CB0;" d="M306.133,499.2c-23.697,0-43.887-16.956-48-40.32c-4.668-26.487,13.082-51.84,39.569-56.508
	c2.799-0.495,5.666-0.751,8.516-0.751c23.689,0,43.887,16.956,48.009,40.32c4.668,26.487-13.082,51.84-39.578,56.516
	C311.808,498.953,308.949,499.2,306.133,499.2z"/>
<path style="fill:#BDC4D0;" d="M256.546,243.2h29.943l37.205,158.848l-17.169-0.333l-0.836-0.094
	c-2.671,0.026-5.359,0.282-7.996,0.742c-1.886,0.333-3.652,0.956-5.419,1.536l-15.898,5.171L256.546,243.2z"/>
<path style="fill:#919CB0;" d="M128,243.2v-128h256v128H128z M256,153.6c-14.114,0-25.6,11.486-25.6,25.6
	c0,14.114,11.486,25.6,25.6,25.6c14.114,0,25.6-11.486,25.6-25.6C281.6,165.086,270.114,153.6,256,153.6z"/>
<rect x="128" y="12.8" style="fill:#A7B0C0;" width="256" height="51.2"/>
<circle style="fill:#6D7584;" cx="256" cy="179.2" r="25.6"/>
<rect x="128" y="64" style="fill:#A7B0C0;" width="256" height="51.2"/>
<g>
	<path style="fill:#573A32;" d="M371.2,0H140.8c-14.14,0-25.6,11.46-25.6,25.6v204.8c0,14.14,11.46,25.6,25.6,25.6h104.388
		l17.988,150.4c-14.029,13.747-21.308,33.937-17.647,54.707C250.726,490.598,276.215,512,306.133,512
		c3.575,0,7.194-0.316,10.735-0.939c33.442-5.897,55.851-37.897,49.954-71.339c-3.362-19.063-15.266-34.637-31.3-43.349L302.643,256
		H371.2c14.14,0,25.6-11.46,25.6-25.6V25.6C396.8,11.46,385.34,0,371.2,0z M341.615,444.16c3.447,19.567-9.617,38.229-29.184,41.685
		c-2.116,0.375-4.224,0.555-6.298,0.555c-17.135,0-32.316-12.279-35.396-29.739c-3.447-19.575,9.617-38.238,29.184-41.685
		c2.116-0.375,4.215-0.555,6.289-0.555C323.354,414.421,338.534,426.701,341.615,444.16z M307.482,388.932
		c-0.427-0.009-0.828-0.111-1.263-0.111c-3.584,0-7.202,0.316-10.743,0.939c-2.867,0.503-5.538,1.451-8.235,2.321L270.976,256h5.367
		L307.482,388.932z M371.2,230.4H140.8V128h230.4V230.4z M371.2,102.4H140.8V76.8h230.4V102.4z M371.2,51.2H140.8V25.6h230.4V51.2z"
		/>
	<path style="fill:#573A32;" d="M256,217.6c21.171,0,38.4-17.229,38.4-38.4s-17.229-38.4-38.4-38.4c-21.171,0-38.4,17.229-38.4,38.4
		S234.829,217.6,256,217.6z M256,166.4c7.066,0,12.8,5.734,12.8,12.8S263.066,192,256,192c-7.066,0-12.8-5.734-12.8-12.8
		S248.934,166.4,256,166.4z"/>
</g>
<g>
</g>
<g>
</g>
<g>
</g>
<g>
</g>
<g>
</g>
<g>
</g>
<g>
</g>
<g>
</g>
<g>
</g>
<g>
</g>
<g>
</g>
<g>
</g>
<g>
</g>
<g>
</g>
<g>
</g>
</svg>
